<mxfile host="app.diagrams.net" modified="2021-04-07T01:45:56.220Z" agent="5.0 (Windows NT 10.0; Win64; x64) AppleWebKit/537.36 (KHTML, like Gecko) Chrome/89.0.4389.114 Safari/537.36" etag="CRO07oZDbuE62sBvui4c" version="14.5.7" type="github" pages="4">
  <diagram id="TdWD0w93wvNsjDnutRls" name="models">
    <mxGraphModel dx="876" dy="393" grid="1" gridSize="10" guides="1" tooltips="1" connect="1" arrows="1" fold="1" page="1" pageScale="1" pageWidth="850" pageHeight="1100" math="0" shadow="0">
      <root>
        <mxCell id="dMVoEUgu7rUzdq6CfvKK-0" />
        <mxCell id="dMVoEUgu7rUzdq6CfvKK-1" parent="dMVoEUgu7rUzdq6CfvKK-0" />
        <mxCell id="dMVoEUgu7rUzdq6CfvKK-2" value="models" style="shape=module;align=left;spacingLeft=20;align=center;verticalAlign=top;" vertex="1" parent="dMVoEUgu7rUzdq6CfvKK-1">
          <mxGeometry x="20" y="70" width="820" height="410" as="geometry" />
        </mxCell>
        <mxCell id="dMVoEUgu7rUzdq6CfvKK-3" value="Drone" style="swimlane;fontStyle=1;align=center;verticalAlign=top;childLayout=stackLayout;horizontal=1;startSize=26;horizontalStack=0;resizeParent=1;resizeParentMax=0;resizeLast=0;collapsible=1;marginBottom=0;" vertex="1" parent="dMVoEUgu7rUzdq6CfvKK-1">
          <mxGeometry x="70" y="219" width="160" height="138" as="geometry" />
        </mxCell>
        <mxCell id="dMVoEUgu7rUzdq6CfvKK-4" value="+ id: int" style="text;strokeColor=none;fillColor=none;align=left;verticalAlign=top;spacingLeft=4;spacingRight=4;overflow=hidden;rotatable=0;points=[[0,0.5],[1,0.5]];portConstraint=eastwest;" vertex="1" parent="dMVoEUgu7rUzdq6CfvKK-3">
          <mxGeometry y="26" width="160" height="26" as="geometry" />
        </mxCell>
        <mxCell id="dMVoEUgu7rUzdq6CfvKK-8" value="+ speed: float" style="text;strokeColor=none;fillColor=none;align=left;verticalAlign=top;spacingLeft=4;spacingRight=4;overflow=hidden;rotatable=0;points=[[0,0.5],[1,0.5]];portConstraint=eastwest;" vertex="1" parent="dMVoEUgu7rUzdq6CfvKK-3">
          <mxGeometry y="52" width="160" height="26" as="geometry" />
        </mxCell>
        <mxCell id="dMVoEUgu7rUzdq6CfvKK-5" value="" style="line;strokeWidth=1;fillColor=none;align=left;verticalAlign=middle;spacingTop=-1;spacingLeft=3;spacingRight=3;rotatable=0;labelPosition=right;points=[];portConstraint=eastwest;" vertex="1" parent="dMVoEUgu7rUzdq6CfvKK-3">
          <mxGeometry y="78" width="160" height="8" as="geometry" />
        </mxCell>
        <mxCell id="dMVoEUgu7rUzdq6CfvKK-6" value="+ init(self, id)" style="text;strokeColor=none;fillColor=none;align=left;verticalAlign=top;spacingLeft=4;spacingRight=4;overflow=hidden;rotatable=0;points=[[0,0.5],[1,0.5]];portConstraint=eastwest;" vertex="1" parent="dMVoEUgu7rUzdq6CfvKK-3">
          <mxGeometry y="86" width="160" height="26" as="geometry" />
        </mxCell>
        <mxCell id="dMVoEUgu7rUzdq6CfvKK-7" value="+ update(self, data)" style="text;strokeColor=none;fillColor=none;align=left;verticalAlign=top;spacingLeft=4;spacingRight=4;overflow=hidden;rotatable=0;points=[[0,0.5],[1,0.5]];portConstraint=eastwest;" vertex="1" parent="dMVoEUgu7rUzdq6CfvKK-3">
          <mxGeometry y="112" width="160" height="26" as="geometry" />
        </mxCell>
        <mxCell id="dMVoEUgu7rUzdq6CfvKK-10" value="User" style="swimlane;fontStyle=1;align=center;verticalAlign=top;childLayout=stackLayout;horizontal=1;startSize=26;horizontalStack=0;resizeParent=1;resizeParentMax=0;resizeLast=0;collapsible=1;marginBottom=0;" vertex="1" parent="dMVoEUgu7rUzdq6CfvKK-1">
          <mxGeometry x="310" y="219" width="160" height="138" as="geometry" />
        </mxCell>
        <mxCell id="dMVoEUgu7rUzdq6CfvKK-11" value="+ username: str" style="text;strokeColor=none;fillColor=none;align=left;verticalAlign=top;spacingLeft=4;spacingRight=4;overflow=hidden;rotatable=0;points=[[0,0.5],[1,0.5]];portConstraint=eastwest;" vertex="1" parent="dMVoEUgu7rUzdq6CfvKK-10">
          <mxGeometry y="26" width="160" height="26" as="geometry" />
        </mxCell>
        <mxCell id="dMVoEUgu7rUzdq6CfvKK-14" value="+ geocode: [ 0.0, 0.0]" style="text;strokeColor=none;fillColor=none;align=left;verticalAlign=top;spacingLeft=4;spacingRight=4;overflow=hidden;rotatable=0;points=[[0,0.5],[1,0.5]];portConstraint=eastwest;" vertex="1" parent="dMVoEUgu7rUzdq6CfvKK-10">
          <mxGeometry y="52" width="160" height="26" as="geometry" />
        </mxCell>
        <mxCell id="dMVoEUgu7rUzdq6CfvKK-12" value="" style="line;strokeWidth=1;fillColor=none;align=left;verticalAlign=middle;spacingTop=-1;spacingLeft=3;spacingRight=3;rotatable=0;labelPosition=right;points=[];portConstraint=eastwest;" vertex="1" parent="dMVoEUgu7rUzdq6CfvKK-10">
          <mxGeometry y="78" width="160" height="8" as="geometry" />
        </mxCell>
        <mxCell id="dMVoEUgu7rUzdq6CfvKK-18" value="+ init(self, username)" style="text;strokeColor=none;fillColor=none;align=left;verticalAlign=top;spacingLeft=4;spacingRight=4;overflow=hidden;rotatable=0;points=[[0,0.5],[1,0.5]];portConstraint=eastwest;" vertex="1" parent="dMVoEUgu7rUzdq6CfvKK-10">
          <mxGeometry y="86" width="160" height="26" as="geometry" />
        </mxCell>
        <mxCell id="dMVoEUgu7rUzdq6CfvKK-17" value="+ update(self, data)" style="text;strokeColor=none;fillColor=none;align=left;verticalAlign=top;spacingLeft=4;spacingRight=4;overflow=hidden;rotatable=0;points=[[0,0.5],[1,0.5]];portConstraint=eastwest;" vertex="1" parent="dMVoEUgu7rUzdq6CfvKK-10">
          <mxGeometry y="112" width="160" height="26" as="geometry" />
        </mxCell>
        <mxCell id="dMVoEUgu7rUzdq6CfvKK-16" value="&lt;p style=&quot;margin: 0px ; margin-top: 4px ; text-align: center&quot;&gt;&lt;i&gt;&amp;lt;&amp;lt;Interface&amp;gt;&amp;gt;&lt;/i&gt;&lt;br&gt;&lt;b&gt;Imodels&lt;/b&gt;&lt;/p&gt;&lt;hr size=&quot;1&quot;&gt;&lt;p style=&quot;margin: 0px ; margin-left: 4px&quot;&gt;&lt;/p&gt;&lt;p style=&quot;margin: 0px ; margin-left: 4px&quot;&gt;+ update(self, data)&lt;/p&gt;" style="verticalAlign=top;align=left;overflow=fill;fontSize=12;fontFamily=Helvetica;html=1;" vertex="1" parent="dMVoEUgu7rUzdq6CfvKK-1">
          <mxGeometry x="330" y="110" width="190" height="70" as="geometry" />
        </mxCell>
        <mxCell id="dMVoEUgu7rUzdq6CfvKK-19" value="HighSchool" style="swimlane;fontStyle=1;align=center;verticalAlign=top;childLayout=stackLayout;horizontal=1;startSize=26;horizontalStack=0;resizeParent=1;resizeParentMax=0;resizeLast=0;collapsible=1;marginBottom=0;" vertex="1" parent="dMVoEUgu7rUzdq6CfvKK-1">
          <mxGeometry x="530" y="219" width="260" height="190" as="geometry" />
        </mxCell>
        <mxCell id="dMVoEUgu7rUzdq6CfvKK-20" value="+ name: str" style="text;strokeColor=none;fillColor=none;align=left;verticalAlign=top;spacingLeft=4;spacingRight=4;overflow=hidden;rotatable=0;points=[[0,0.5],[1,0.5]];portConstraint=eastwest;" vertex="1" parent="dMVoEUgu7rUzdq6CfvKK-19">
          <mxGeometry y="26" width="260" height="26" as="geometry" />
        </mxCell>
        <mxCell id="dMVoEUgu7rUzdq6CfvKK-25" value="+ address: str" style="text;strokeColor=none;fillColor=none;align=left;verticalAlign=top;spacingLeft=4;spacingRight=4;overflow=hidden;rotatable=0;points=[[0,0.5],[1,0.5]];portConstraint=eastwest;" vertex="1" parent="dMVoEUgu7rUzdq6CfvKK-19">
          <mxGeometry y="52" width="260" height="26" as="geometry" />
        </mxCell>
        <mxCell id="dMVoEUgu7rUzdq6CfvKK-26" value="+ img: Image()" style="text;strokeColor=none;fillColor=none;align=left;verticalAlign=top;spacingLeft=4;spacingRight=4;overflow=hidden;rotatable=0;points=[[0,0.5],[1,0.5]];portConstraint=eastwest;" vertex="1" parent="dMVoEUgu7rUzdq6CfvKK-19">
          <mxGeometry y="78" width="260" height="26" as="geometry" />
        </mxCell>
        <mxCell id="dMVoEUgu7rUzdq6CfvKK-21" value="+ geocode: [ 0.0, 0.0]" style="text;strokeColor=none;fillColor=none;align=left;verticalAlign=top;spacingLeft=4;spacingRight=4;overflow=hidden;rotatable=0;points=[[0,0.5],[1,0.5]];portConstraint=eastwest;" vertex="1" parent="dMVoEUgu7rUzdq6CfvKK-19">
          <mxGeometry y="104" width="260" height="26" as="geometry" />
        </mxCell>
        <mxCell id="dMVoEUgu7rUzdq6CfvKK-22" value="" style="line;strokeWidth=1;fillColor=none;align=left;verticalAlign=middle;spacingTop=-1;spacingLeft=3;spacingRight=3;rotatable=0;labelPosition=right;points=[];portConstraint=eastwest;" vertex="1" parent="dMVoEUgu7rUzdq6CfvKK-19">
          <mxGeometry y="130" width="260" height="8" as="geometry" />
        </mxCell>
        <mxCell id="dMVoEUgu7rUzdq6CfvKK-23" value="+ init(self, name, address, image, geocode[ ])" style="text;strokeColor=none;fillColor=none;align=left;verticalAlign=top;spacingLeft=4;spacingRight=4;overflow=hidden;rotatable=0;points=[[0,0.5],[1,0.5]];portConstraint=eastwest;" vertex="1" parent="dMVoEUgu7rUzdq6CfvKK-19">
          <mxGeometry y="138" width="260" height="26" as="geometry" />
        </mxCell>
        <mxCell id="dMVoEUgu7rUzdq6CfvKK-24" value="+ update(self, data)" style="text;strokeColor=none;fillColor=none;align=left;verticalAlign=top;spacingLeft=4;spacingRight=4;overflow=hidden;rotatable=0;points=[[0,0.5],[1,0.5]];portConstraint=eastwest;" vertex="1" parent="dMVoEUgu7rUzdq6CfvKK-19">
          <mxGeometry y="164" width="260" height="26" as="geometry" />
        </mxCell>
      </root>
    </mxGraphModel>
  </diagram>
  <diagram id="L4aOaPKghjRBh_glBOwT" name="utils">
    <mxGraphModel dx="876" dy="393" grid="1" gridSize="10" guides="1" tooltips="1" connect="1" arrows="1" fold="1" page="1" pageScale="1" pageWidth="850" pageHeight="1100" math="0" shadow="0">
      <root>
        <mxCell id="RBmDC9nWxLr01PkFw7gO-0" />
        <mxCell id="RBmDC9nWxLr01PkFw7gO-1" parent="RBmDC9nWxLr01PkFw7gO-0" />
        <mxCell id="dp98t0aPJaycaI7kP40D-0" value="utils" style="shape=module;align=left;spacingLeft=20;align=center;verticalAlign=top;" vertex="1" parent="RBmDC9nWxLr01PkFw7gO-1">
          <mxGeometry x="20" y="40" width="820" height="290" as="geometry" />
        </mxCell>
        <mxCell id="dp98t0aPJaycaI7kP40D-1" value="Utils" style="swimlane;fontStyle=1;align=center;verticalAlign=top;childLayout=stackLayout;horizontal=1;startSize=26;horizontalStack=0;resizeParent=1;resizeParentMax=0;resizeLast=0;collapsible=1;marginBottom=0;" vertex="1" parent="RBmDC9nWxLr01PkFw7gO-1">
          <mxGeometry x="100" y="70" width="470" height="216" as="geometry" />
        </mxCell>
        <mxCell id="dp98t0aPJaycaI7kP40D-2" value="+ field: type" style="text;strokeColor=none;fillColor=none;align=left;verticalAlign=top;spacingLeft=4;spacingRight=4;overflow=hidden;rotatable=0;points=[[0,0.5],[1,0.5]];portConstraint=eastwest;" vertex="1" parent="dp98t0aPJaycaI7kP40D-1">
          <mxGeometry y="26" width="470" height="26" as="geometry" />
        </mxCell>
        <mxCell id="dp98t0aPJaycaI7kP40D-3" value="" style="line;strokeWidth=1;fillColor=none;align=left;verticalAlign=middle;spacingTop=-1;spacingLeft=3;spacingRight=3;rotatable=0;labelPosition=right;points=[];portConstraint=eastwest;" vertex="1" parent="dp98t0aPJaycaI7kP40D-1">
          <mxGeometry y="52" width="470" height="8" as="geometry" />
        </mxCell>
        <mxCell id="dp98t0aPJaycaI7kP40D-4" value="+ init(self)" style="text;strokeColor=none;fillColor=none;align=left;verticalAlign=top;spacingLeft=4;spacingRight=4;overflow=hidden;rotatable=0;points=[[0,0.5],[1,0.5]];portConstraint=eastwest;" vertex="1" parent="dp98t0aPJaycaI7kP40D-1">
          <mxGeometry y="60" width="470" height="26" as="geometry" />
        </mxCell>
        <mxCell id="dp98t0aPJaycaI7kP40D-5" value="+ dist_between_two_lat_lon(self, *args[ ]): float" style="text;strokeColor=none;fillColor=none;align=left;verticalAlign=top;spacingLeft=4;spacingRight=4;overflow=hidden;rotatable=0;points=[[0,0.5],[1,0.5]];portConstraint=eastwest;" vertex="1" parent="dp98t0aPJaycaI7kP40D-1">
          <mxGeometry y="86" width="470" height="26" as="geometry" />
        </mxCell>
        <mxCell id="dp98t0aPJaycaI7kP40D-6" value="+ find_closest_lat_lon(self, data, userLocation): geoCodes" style="text;strokeColor=none;fillColor=none;align=left;verticalAlign=top;spacingLeft=4;spacingRight=4;overflow=hidden;rotatable=0;points=[[0,0.5],[1,0.5]];portConstraint=eastwest;" vertex="1" parent="dp98t0aPJaycaI7kP40D-1">
          <mxGeometry y="112" width="470" height="26" as="geometry" />
        </mxCell>
        <mxCell id="dp98t0aPJaycaI7kP40D-7" value="+ geocode_to_address(self, geoCode): str" style="text;strokeColor=none;fillColor=none;align=left;verticalAlign=top;spacingLeft=4;spacingRight=4;overflow=hidden;rotatable=0;points=[[0,0.5],[1,0.5]];portConstraint=eastwest;" vertex="1" parent="dp98t0aPJaycaI7kP40D-1">
          <mxGeometry y="138" width="470" height="26" as="geometry" />
        </mxCell>
        <mxCell id="dp98t0aPJaycaI7kP40D-8" value="+ address_to_geocode(self, address:str): geocode" style="text;strokeColor=none;fillColor=none;align=left;verticalAlign=top;spacingLeft=4;spacingRight=4;overflow=hidden;rotatable=0;points=[[0,0.5],[1,0.5]];portConstraint=eastwest;" vertex="1" parent="dp98t0aPJaycaI7kP40D-1">
          <mxGeometry y="164" width="470" height="26" as="geometry" />
        </mxCell>
        <mxCell id="dp98t0aPJaycaI7kP40D-9" value="+ miles_between(self, userLocation:str, schoolGeocode. geocode): float" style="text;strokeColor=none;fillColor=none;align=left;verticalAlign=top;spacingLeft=4;spacingRight=4;overflow=hidden;rotatable=0;points=[[0,0.5],[1,0.5]];portConstraint=eastwest;" vertex="1" parent="dp98t0aPJaycaI7kP40D-1">
          <mxGeometry y="190" width="470" height="26" as="geometry" />
        </mxCell>
      </root>
    </mxGraphModel>
  </diagram>
  <diagram id="C5RBs43oDa-KdzZeNtuy" name="controllers">
    <mxGraphModel dx="876" dy="393" grid="1" gridSize="10" guides="1" tooltips="1" connect="1" arrows="1" fold="1" page="1" pageScale="1" pageWidth="827" pageHeight="1169" math="0" shadow="0">
      <root>
        <mxCell id="WIyWlLk6GJQsqaUBKTNV-0" />
        <mxCell id="WIyWlLk6GJQsqaUBKTNV-1" parent="WIyWlLk6GJQsqaUBKTNV-0" />
        <mxCell id="s5RBkgDItihvCO-z5r_Y-5" value="controllers.py" style="shape=module;align=left;spacingLeft=20;align=center;verticalAlign=top;" vertex="1" parent="WIyWlLk6GJQsqaUBKTNV-1">
          <mxGeometry x="30" y="70" width="770" height="850" as="geometry" />
        </mxCell>
        <mxCell id="s5RBkgDItihvCO-z5r_Y-0" value="ControllerDrones" style="swimlane;fontStyle=1;align=center;verticalAlign=top;childLayout=stackLayout;horizontal=1;startSize=26;horizontalStack=0;resizeParent=1;resizeParentMax=0;resizeLast=0;collapsible=1;marginBottom=0;" vertex="1" parent="WIyWlLk6GJQsqaUBKTNV-1">
          <mxGeometry x="60" y="140" width="210" height="190" as="geometry" />
        </mxCell>
        <mxCell id="s5RBkgDItihvCO-z5r_Y-1" value="+ drones: [ ]" style="text;strokeColor=none;fillColor=none;align=left;verticalAlign=top;spacingLeft=4;spacingRight=4;overflow=hidden;rotatable=0;points=[[0,0.5],[1,0.5]];portConstraint=eastwest;" vertex="1" parent="s5RBkgDItihvCO-z5r_Y-0">
          <mxGeometry y="26" width="210" height="26" as="geometry" />
        </mxCell>
        <mxCell id="s5RBkgDItihvCO-z5r_Y-4" value="+ drones_id: [ ]" style="text;strokeColor=none;fillColor=none;align=left;verticalAlign=top;spacingLeft=4;spacingRight=4;overflow=hidden;rotatable=0;points=[[0,0.5],[1,0.5]];portConstraint=eastwest;" vertex="1" parent="s5RBkgDItihvCO-z5r_Y-0">
          <mxGeometry y="52" width="210" height="26" as="geometry" />
        </mxCell>
        <mxCell id="s5RBkgDItihvCO-z5r_Y-2" value="" style="line;strokeWidth=1;fillColor=none;align=left;verticalAlign=middle;spacingTop=-1;spacingLeft=3;spacingRight=3;rotatable=0;labelPosition=right;points=[];portConstraint=eastwest;" vertex="1" parent="s5RBkgDItihvCO-z5r_Y-0">
          <mxGeometry y="78" width="210" height="8" as="geometry" />
        </mxCell>
        <mxCell id="s5RBkgDItihvCO-z5r_Y-3" value="+ get(self, id: int): Drone()" style="text;strokeColor=none;fillColor=none;align=left;verticalAlign=top;spacingLeft=4;spacingRight=4;overflow=hidden;rotatable=0;points=[[0,0.5],[1,0.5]];portConstraint=eastwest;" vertex="1" parent="s5RBkgDItihvCO-z5r_Y-0">
          <mxGeometry y="86" width="210" height="26" as="geometry" />
        </mxCell>
        <mxCell id="aj-DKwJ15-lbSr-2Zpdy-0" value="+ get_all(self): drones[Drone]" style="text;strokeColor=none;fillColor=none;align=left;verticalAlign=top;spacingLeft=4;spacingRight=4;overflow=hidden;rotatable=0;points=[[0,0.5],[1,0.5]];portConstraint=eastwest;" vertex="1" parent="s5RBkgDItihvCO-z5r_Y-0">
          <mxGeometry y="112" width="210" height="26" as="geometry" />
        </mxCell>
        <mxCell id="aj-DKwJ15-lbSr-2Zpdy-1" value="+ create(self, drone_id): boolean" style="text;strokeColor=none;fillColor=none;align=left;verticalAlign=top;spacingLeft=4;spacingRight=4;overflow=hidden;rotatable=0;points=[[0,0.5],[1,0.5]];portConstraint=eastwest;" vertex="1" parent="s5RBkgDItihvCO-z5r_Y-0">
          <mxGeometry y="138" width="210" height="26" as="geometry" />
        </mxCell>
        <mxCell id="aj-DKwJ15-lbSr-2Zpdy-2" value="+ update(self, drone: Drone())" style="text;strokeColor=none;fillColor=none;align=left;verticalAlign=top;spacingLeft=4;spacingRight=4;overflow=hidden;rotatable=0;points=[[0,0.5],[1,0.5]];portConstraint=eastwest;" vertex="1" parent="s5RBkgDItihvCO-z5r_Y-0">
          <mxGeometry y="164" width="210" height="26" as="geometry" />
        </mxCell>
        <mxCell id="aj-DKwJ15-lbSr-2Zpdy-3" value="ControllerUsers" style="swimlane;fontStyle=1;align=center;verticalAlign=top;childLayout=stackLayout;horizontal=1;startSize=26;horizontalStack=0;resizeParent=1;resizeParentMax=0;resizeLast=0;collapsible=1;marginBottom=0;" vertex="1" parent="WIyWlLk6GJQsqaUBKTNV-1">
          <mxGeometry x="309" y="140" width="210" height="190" as="geometry" />
        </mxCell>
        <mxCell id="aj-DKwJ15-lbSr-2Zpdy-4" value="+ users: [ ]" style="text;strokeColor=none;fillColor=none;align=left;verticalAlign=top;spacingLeft=4;spacingRight=4;overflow=hidden;rotatable=0;points=[[0,0.5],[1,0.5]];portConstraint=eastwest;" vertex="1" parent="aj-DKwJ15-lbSr-2Zpdy-3">
          <mxGeometry y="26" width="210" height="26" as="geometry" />
        </mxCell>
        <mxCell id="aj-DKwJ15-lbSr-2Zpdy-5" value="+ usernames: [ ]" style="text;strokeColor=none;fillColor=none;align=left;verticalAlign=top;spacingLeft=4;spacingRight=4;overflow=hidden;rotatable=0;points=[[0,0.5],[1,0.5]];portConstraint=eastwest;" vertex="1" parent="aj-DKwJ15-lbSr-2Zpdy-3">
          <mxGeometry y="52" width="210" height="26" as="geometry" />
        </mxCell>
        <mxCell id="aj-DKwJ15-lbSr-2Zpdy-6" value="" style="line;strokeWidth=1;fillColor=none;align=left;verticalAlign=middle;spacingTop=-1;spacingLeft=3;spacingRight=3;rotatable=0;labelPosition=right;points=[];portConstraint=eastwest;" vertex="1" parent="aj-DKwJ15-lbSr-2Zpdy-3">
          <mxGeometry y="78" width="210" height="8" as="geometry" />
        </mxCell>
        <mxCell id="aj-DKwJ15-lbSr-2Zpdy-7" value="+ get(self, username: str): User()" style="text;strokeColor=none;fillColor=none;align=left;verticalAlign=top;spacingLeft=4;spacingRight=4;overflow=hidden;rotatable=0;points=[[0,0.5],[1,0.5]];portConstraint=eastwest;" vertex="1" parent="aj-DKwJ15-lbSr-2Zpdy-3">
          <mxGeometry y="86" width="210" height="26" as="geometry" />
        </mxCell>
        <mxCell id="aj-DKwJ15-lbSr-2Zpdy-8" value="+ get_all(self): users[User]" style="text;strokeColor=none;fillColor=none;align=left;verticalAlign=top;spacingLeft=4;spacingRight=4;overflow=hidden;rotatable=0;points=[[0,0.5],[1,0.5]];portConstraint=eastwest;" vertex="1" parent="aj-DKwJ15-lbSr-2Zpdy-3">
          <mxGeometry y="112" width="210" height="26" as="geometry" />
        </mxCell>
        <mxCell id="aj-DKwJ15-lbSr-2Zpdy-9" value="+ create(self, username:str): boolean" style="text;strokeColor=none;fillColor=none;align=left;verticalAlign=top;spacingLeft=4;spacingRight=4;overflow=hidden;rotatable=0;points=[[0,0.5],[1,0.5]];portConstraint=eastwest;" vertex="1" parent="aj-DKwJ15-lbSr-2Zpdy-3">
          <mxGeometry y="138" width="210" height="26" as="geometry" />
        </mxCell>
        <mxCell id="aj-DKwJ15-lbSr-2Zpdy-10" value="+ update(self, user:User())" style="text;strokeColor=none;fillColor=none;align=left;verticalAlign=top;spacingLeft=4;spacingRight=4;overflow=hidden;rotatable=0;points=[[0,0.5],[1,0.5]];portConstraint=eastwest;" vertex="1" parent="aj-DKwJ15-lbSr-2Zpdy-3">
          <mxGeometry y="164" width="210" height="26" as="geometry" />
        </mxCell>
        <mxCell id="aj-DKwJ15-lbSr-2Zpdy-11" value="ControllerHighSchools" style="swimlane;fontStyle=1;align=center;verticalAlign=top;childLayout=stackLayout;horizontal=1;startSize=26;horizontalStack=0;resizeParent=1;resizeParentMax=0;resizeLast=0;collapsible=1;marginBottom=0;" vertex="1" parent="WIyWlLk6GJQsqaUBKTNV-1">
          <mxGeometry x="550" y="140" width="240" height="190" as="geometry" />
        </mxCell>
        <mxCell id="aj-DKwJ15-lbSr-2Zpdy-12" value="+ high_schools: [ ]" style="text;strokeColor=none;fillColor=none;align=left;verticalAlign=top;spacingLeft=4;spacingRight=4;overflow=hidden;rotatable=0;points=[[0,0.5],[1,0.5]];portConstraint=eastwest;" vertex="1" parent="aj-DKwJ15-lbSr-2Zpdy-11">
          <mxGeometry y="26" width="240" height="26" as="geometry" />
        </mxCell>
        <mxCell id="aj-DKwJ15-lbSr-2Zpdy-14" value="" style="line;strokeWidth=1;fillColor=none;align=left;verticalAlign=middle;spacingTop=-1;spacingLeft=3;spacingRight=3;rotatable=0;labelPosition=right;points=[];portConstraint=eastwest;" vertex="1" parent="aj-DKwJ15-lbSr-2Zpdy-11">
          <mxGeometry y="52" width="240" height="8" as="geometry" />
        </mxCell>
        <mxCell id="aj-DKwJ15-lbSr-2Zpdy-15" value="+ get(self, name: str): HighSchool()" style="text;strokeColor=none;fillColor=none;align=left;verticalAlign=top;spacingLeft=4;spacingRight=4;overflow=hidden;rotatable=0;points=[[0,0.5],[1,0.5]];portConstraint=eastwest;" vertex="1" parent="aj-DKwJ15-lbSr-2Zpdy-11">
          <mxGeometry y="60" width="240" height="26" as="geometry" />
        </mxCell>
        <mxCell id="aj-DKwJ15-lbSr-2Zpdy-16" value="+ get_all(self): highSchools[HighSchool]" style="text;strokeColor=none;fillColor=none;align=left;verticalAlign=top;spacingLeft=4;spacingRight=4;overflow=hidden;rotatable=0;points=[[0,0.5],[1,0.5]];portConstraint=eastwest;" vertex="1" parent="aj-DKwJ15-lbSr-2Zpdy-11">
          <mxGeometry y="86" width="240" height="26" as="geometry" />
        </mxCell>
        <mxCell id="aj-DKwJ15-lbSr-2Zpdy-17" value="+ create(self, name:str, address: str, &#xa;img: Image(), geocode[ ]): boolean" style="text;strokeColor=none;fillColor=none;align=left;verticalAlign=top;spacingLeft=4;spacingRight=4;overflow=hidden;rotatable=0;points=[[0,0.5],[1,0.5]];portConstraint=eastwest;" vertex="1" parent="aj-DKwJ15-lbSr-2Zpdy-11">
          <mxGeometry y="112" width="240" height="48" as="geometry" />
        </mxCell>
        <mxCell id="aj-DKwJ15-lbSr-2Zpdy-18" value="+ update(self, highSchool:HighSchool())" style="text;strokeColor=none;fillColor=none;align=left;verticalAlign=top;spacingLeft=4;spacingRight=4;overflow=hidden;rotatable=0;points=[[0,0.5],[1,0.5]];portConstraint=eastwest;" vertex="1" parent="aj-DKwJ15-lbSr-2Zpdy-11">
          <mxGeometry y="160" width="240" height="30" as="geometry" />
        </mxCell>
        <mxCell id="k5L-56RvpHFAwSo8sae7-0" value="ControllerDatabase" style="swimlane;fontStyle=1;align=center;verticalAlign=top;childLayout=stackLayout;horizontal=1;startSize=26;horizontalStack=0;resizeParent=1;resizeParentMax=0;resizeLast=0;collapsible=1;marginBottom=0;" vertex="1" parent="WIyWlLk6GJQsqaUBKTNV-1">
          <mxGeometry x="60" y="380" width="210" height="112" as="geometry" />
        </mxCell>
        <mxCell id="k5L-56RvpHFAwSo8sae7-1" value="+ connectionString: str" style="text;strokeColor=none;fillColor=none;align=left;verticalAlign=top;spacingLeft=4;spacingRight=4;overflow=hidden;rotatable=0;points=[[0,0.5],[1,0.5]];portConstraint=eastwest;" vertex="1" parent="k5L-56RvpHFAwSo8sae7-0">
          <mxGeometry y="26" width="210" height="26" as="geometry" />
        </mxCell>
        <mxCell id="k5L-56RvpHFAwSo8sae7-3" value="" style="line;strokeWidth=1;fillColor=none;align=left;verticalAlign=middle;spacingTop=-1;spacingLeft=3;spacingRight=3;rotatable=0;labelPosition=right;points=[];portConstraint=eastwest;" vertex="1" parent="k5L-56RvpHFAwSo8sae7-0">
          <mxGeometry y="52" width="210" height="8" as="geometry" />
        </mxCell>
        <mxCell id="k5L-56RvpHFAwSo8sae7-4" value="+ connect(self): boolean" style="text;strokeColor=none;fillColor=none;align=left;verticalAlign=top;spacingLeft=4;spacingRight=4;overflow=hidden;rotatable=0;points=[[0,0.5],[1,0.5]];portConstraint=eastwest;" vertex="1" parent="k5L-56RvpHFAwSo8sae7-0">
          <mxGeometry y="60" width="210" height="26" as="geometry" />
        </mxCell>
        <mxCell id="k5L-56RvpHFAwSo8sae7-5" value="+ desconnect(self)" style="text;strokeColor=none;fillColor=none;align=left;verticalAlign=top;spacingLeft=4;spacingRight=4;overflow=hidden;rotatable=0;points=[[0,0.5],[1,0.5]];portConstraint=eastwest;" vertex="1" parent="k5L-56RvpHFAwSo8sae7-0">
          <mxGeometry y="86" width="210" height="26" as="geometry" />
        </mxCell>
      </root>
    </mxGraphModel>
  </diagram>
  <diagram id="a1Fb9YPf-OpZjkWXLLzI" name="main">
    <mxGraphModel dx="876" dy="393" grid="1" gridSize="10" guides="1" tooltips="1" connect="1" arrows="1" fold="1" page="1" pageScale="1" pageWidth="850" pageHeight="1100" math="0" shadow="0">
      <root>
        <mxCell id="L7JTZydcFYzJsst0XJUS-0" />
        <mxCell id="L7JTZydcFYzJsst0XJUS-1" parent="L7JTZydcFYzJsst0XJUS-0" />
      </root>
    </mxGraphModel>
  </diagram>
</mxfile>
